<svg xmlns="http://www.w3.org/2000/svg" width="122.864mm" height="41.0911mm" viewBox="0 0 10535.12 3523.41">
<g id="Слой_x0020_1">
  <metadata id="CorelCorpID_0Corel-Layer"/>
  <g id="_2243831212352">
   <g>
    <path fill="white" fill-rule="nonzero" d="M1340.56 1766.71c156.32,7.22 295.58,36.42 417.74,87.6 142.22,59.59 252.19,140.86 329.91,243.78 77.73,102.93 116.6,219.4 116.6,349.42 0,146.26 -41.35,277.62 -124.03,394.1 -82.69,116.47 -195.96,207.87 -339.84,274.24 -143.88,66.36 -305.11,99.54 -483.71,99.54 -100.55,0 -210.92,-3.45 -331.1,-10.34 9.38,-23.03 20.1,-49.24 26.6,-64.84 64.34,6.78 142.68,10.17 235.04,10.17 251.37,0 435.75,-53.49 553.17,-160.48 117.41,-106.99 176.11,-253.93 176.11,-440.82 0,-203.14 -76.07,-369.72 -228.21,-499.73 -152.13,-130.02 -360.5,-196.38 -625.1,-199.09 -45.39,-1.33 -90.38,-2.01 -134.96,-2.03 -7.3,-9.62 -16.76,-24.03 -21.56,-39.28 -5.52,-17.54 -5.03,-29.63 -4.04,-35.92 267.59,-1.68 456.71,-55.17 567.37,-160.45 112.46,-106.99 168.67,-239.03 168.67,-396.13 0,-92.09 -20.66,-177.41 -62.01,-255.96 -41.34,-78.55 -109.14,-141.52 -203.4,-188.92 -94.27,-47.4 -222.43,-71.1 -384.49,-71.1 -79.38,0 -143.87,4.74 -193.49,14.23 -49.6,9.47 -85.16,34.53 -106.66,75.16 -5.22,9.87 -9.8,21.42 -13.75,34.64 -12.72,-22.96 -24.2,-49.36 -29.33,-76.18 -9.53,-49.85 13.91,-71.18 31.25,-79.96 45.74,-2.02 94.33,-4.85 145.78,-8.51 114.11,-8.13 207.54,-12.19 280.3,-12.19 195.14,0 351.42,25.06 468.83,75.17 117.42,50.11 202.59,115.79 255.51,197.05 52.91,81.26 79.38,170.63 79.38,268.15 0,154.39 -66.98,284.4 -200.92,390.03 -102.88,81.13 -224.78,143.89 -365.71,188.27l0.06 0.4zm-1154.07 -1107.44c0,0 -136.85,410.32 -76.07,771.94 60.79,361.62 169.39,513.81 332.87,904.16 163.48,390.35 25.02,535.48 -26.69,618.89 -51.7,83.41 -101.76,138.45 -101.76,138.45 0,0 -16.83,-18.42 5.49,-67.9 22.31,-49.49 169.57,-269.18 5.01,-606.08 -164.56,-336.91 -325.34,-667.55 -325.34,-1063.81 0,-396.26 165.8,-721.44 186.49,-695.65z"/>
    <path fill="#FF8E16" d="M624.8 1548.78c0,0 6.24,151.56 -68.88,195.31 -18.8,10.96 -26.76,13.34 -48.47,14.52 -86.81,4.73 -164.91,-125.3 -164.91,-125.3 0,0 -8.97,-15.1 11.38,-21.78 20.35,-6.68 40.87,10.55 64.26,28.93 46.19,36.29 128.73,11.57 147.38,-44.13 9.44,-28.22 17.11,-53.88 37.78,-59.49 20.66,-5.61 21.46,11.94 21.46,11.94zm237.89 -1489.62c0,0 -34.14,13.09 -49.93,-0.69 -3.94,-3.46 -5.1,-5.09 -7.05,-9.96 -7.77,-19.46 15.93,-47.31 15.93,-47.31 0,0 2.76,-3.22 5.85,0.92 3.1,4.13 0.74,10.15 -1.66,16.91 -4.73,13.35 7.27,30.3 21.43,30.28 7.18,-0.02 13.63,-0.25 16.51,4.05 2.87,4.29 -1.07,5.82 -1.07,5.82zm-47.84 51.28c0,0 -44.77,20.7 -67.24,3.56 -5.63,-4.29 -7.34,-6.38 -10.38,-12.76 -12.2,-25.5 17.17,-65.12 17.17,-65.12 0,0 3.42,-4.57 7.95,0.71 4.54,5.28 1.91,13.59 -0.71,22.9 -5.16,18.38 12.51,40.12 31.57,38.81 9.65,-0.68 18.31,-1.56 22.57,3.95 4.25,5.51 -0.93,7.94 -0.93,7.94zm-52.95 57.73c0,0 -50.98,24.68 -77.15,5.45 -6.54,-4.81 -8.55,-7.18 -12.18,-14.44 -14.53,-29.03 18.4,-75.13 18.4,-75.13 0,0 3.83,-5.32 9.15,0.67 5.32,5.97 2.46,15.55 -0.36,26.31 -5.56,21.22 15.19,45.82 37.04,43.92 11.07,-0.96 21,-2.15 26,4.1 4.99,6.24 -0.9,9.12 -0.9,9.12zm-58.56 60.91c0,0 -54.18,34.74 -86.3,16.58 -8.04,-4.54 -10.62,-6.95 -15.69,-14.65 -20.32,-30.79 10.59,-87.24 10.59,-87.24 0,0 3.61,-6.53 10.41,-0.5 6.81,6.03 4.89,17.23 3.16,29.74 -3.4,24.69 23.33,49.63 47.73,44.54 12.36,-2.58 23.4,-5.27 29.87,1.1 6.49,6.37 0.23,10.43 0.23,10.43zm-63.77 74.36c0,0 -58.18,37.29 -92.66,17.81 -8.63,-4.88 -11.4,-7.45 -16.85,-15.73 -21.81,-33.06 11.38,-93.66 11.38,-93.66 0,0 3.88,-7 11.17,-0.53 7.31,6.47 5.25,18.5 3.4,31.92 -3.65,26.51 25.05,53.29 51.24,47.82 13.26,-2.78 25.12,-5.67 32.08,1.17 6.96,6.84 0.24,11.19 0.24,11.19zm-52.29 74.03c0,0 -50.97,52.13 -91.04,40.27 -10.02,-2.97 -13.49,-4.96 -21.05,-12.17 -30.27,-28.82 -10.5,-98.99 -10.5,-98.99 0,0 2.32,-8.12 11.37,-3.21 9.04,4.93 9.78,17.78 11.05,32.03 2.53,28.12 38.37,48.85 64.01,37.02 12.99,-5.99 24.49,-11.76 33.27,-6.38 8.77,5.38 2.89,11.44 2.89,11.44zm-49.12 97.98c0,0 -47.79,55.06 -88.49,45.58 -10.19,-2.37 -13.75,-4.16 -21.74,-10.91 -31.91,-26.97 -16.34,-98.2 -16.34,-98.2 0,0 1.83,-8.24 11.16,-3.87 9.32,4.38 10.81,17.17 12.93,31.31 4.18,27.92 41.2,46.49 66.09,33.16 12.6,-6.75 23.75,-13.2 32.83,-8.34 9.07,4.86 3.56,11.26 3.56,11.26zm-26.81 106.7c0,0 -48.65,66.11 -95.19,59.16 -11.64,-1.73 -15.81,-3.42 -25.37,-10.27 -38.26,-27.39 -27.22,-108.72 -27.22,-108.72 0,0 1.31,-9.42 12.17,-5.35 10.86,4.07 13.69,18.28 17.34,33.96 7.23,30.95 50.45,48.46 77.17,31.25 13.54,-8.73 25.47,-16.97 36.09,-12.34 10.62,4.63 5.02,12.3 5.02,12.3zm-31.44 109.1c0,0 -33.78,79.58 -83.17,83.78 -12.35,1.05 -17.03,0.33 -28.5,-4.36 -45.87,-18.75 -54.34,-104.79 -54.34,-104.79 0,0 -0.93,-9.96 11.16,-8.44 12.12,1.53 18.48,15.41 26.04,30.59 14.93,29.96 63.48,37.38 86.68,13.24 11.75,-12.23 21.96,-23.57 33.98,-21.41 12,2.16 8.14,11.39 8.14,11.39zm-6.67 121.25c0,0 -27.33,87.75 -79.1,97.42 -12.96,2.42 -17.99,2.15 -30.63,-1.59 -50.5,-14.99 -68.55,-105.11 -68.55,-105.11 0,0 -2.05,-10.45 10.92,-10.11 12.97,0.34 21.17,14.35 30.77,29.6 18.96,30.12 71.09,32.84 93.09,4.85 11.14,-14.17 20.74,-27.26 33.68,-26.25 12.94,1.01 9.82,11.19 9.82,11.19zm18.84 126.93c0,0 -27.57,107.77 -89.55,122.67 -15.51,3.73 -21.61,3.73 -37.11,-0.03 -61.97,-14.96 -89.41,-122.77 -89.41,-122.77 0,0 -3.13,-12.49 12.58,-12.9 15.7,-0.4 26.48,16.03 39.03,33.87 24.8,35.22 87.98,35.26 112.82,0.06 12.58,-17.83 23.37,-34.24 39.07,-33.82 15.7,0.42 12.56,12.91 12.56,12.91zm10.02 152.89c0,0 -26.68,107.99 -88.54,123.4 -15.49,3.87 -21.57,3.92 -37.1,0.29 -62.1,-14.46 -90.43,-122.03 -90.43,-122.03 0,0 -3.23,-12.47 12.47,-13.01 15.7,-0.52 26.62,15.81 39.31,33.55 25.09,35.02 88.28,34.53 112.82,-0.87 12.42,-17.93 23.09,-34.44 38.8,-34.14 15.7,0.28 12.66,12.81 12.66,12.81zm28.36 130.11c0,0 -9.29,126.59 -75.91,155.78 -16.67,7.31 -23.51,8.53 -41.68,7.44 -72.61,-4.36 -125.11,-119.91 -125.11,-119.91 0,0 -6.02,-13.41 11.53,-17.02 17.56,-3.6 32.96,12.67 50.65,30.19 34.93,34.57 105.91,21.9 126.73,-22.62 10.53,-22.55 19.35,-43.16 37.08,-45.85 17.72,-2.69 16.71,11.98 16.71,11.98zm32.53 161.88c0,0 2.82,135.87 -65.27,173.7 -17.05,9.47 -24.21,11.46 -43.7,12.11 -77.84,2.66 -145.42,-115.26 -145.42,-115.26 0,0 -7.77,-13.69 10.58,-19.3 18.36,-5.61 36.42,10.2 57.04,27.1 40.71,33.35 115.11,12.72 132.83,-36.84 8.97,-25.11 16.31,-47.96 34.92,-52.6 18.62,-4.65 19.01,11.09 19.01,11.09zm-226.7 2126.29c0,0 -38.28,21.9 -59.62,8.38 -5.34,-3.38 -7.02,-5.11 -10.24,-10.56 -12.84,-21.76 10.25,-59.33 10.25,-59.33 0,0 2.69,-4.34 7.14,0.02 4.45,4.36 2.75,11.95 1.14,20.45 -3.17,16.78 14.25,34.76 31.12,32.12 8.55,-1.35 16.2,-2.81 20.42,1.77 4.21,4.59 -0.21,7.14 -0.21,7.14zm71.96 -59.31c0,0 -42.52,30.07 -69.15,16.58 -6.67,-3.37 -8.84,-5.22 -13.23,-11.26 -17.56,-24.14 5.36,-70.9 5.36,-70.9 0,0 2.68,-5.41 8.39,-0.79 5.73,4.62 4.59,13.75 3.64,23.91 -1.83,20.08 20.68,39.26 40.22,34.26 9.9,-2.55 18.72,-5.12 24.2,-0.21 5.47,4.91 0.56,8.41 0.56,8.41zm64.34 -64.95c0,0 -46.51,32.89 -75.64,18.14 -7.29,-3.7 -9.66,-5.71 -14.47,-12.31 -19.21,-26.41 5.86,-77.57 5.86,-77.57 0,0 2.93,-5.91 9.19,-0.86 6.26,5.05 5.01,15.03 3.99,26.16 -2.02,21.97 22.62,42.95 43.99,37.46 10.82,-2.78 20.48,-5.6 26.46,-0.22 5.99,5.37 0.62,9.2 0.62,9.2zm83.55 -81.72c0,0 -45.65,41.51 -78.91,29.51 -8.33,-3 -11.15,-4.86 -17.19,-11.33 -24.14,-25.84 -3.96,-84.16 -3.96,-84.16 0,0 2.37,-6.74 9.77,-2.14 7.4,4.6 7.37,15.5 7.75,27.6 0.74,23.89 30,43.18 52.25,34.46 11.27,-4.43 21.27,-8.74 28.42,-3.76 7.14,4.98 1.88,9.82 1.88,9.82zm79.98 -96.43c0,0 -49.55,52.72 -89.54,41.73 -10.01,-2.75 -13.47,-4.66 -21.13,-11.67 -30.59,-28 -12.36,-98.02 -12.36,-98.02 0,0 2.15,-8.09 11.22,-3.4 9.06,4.71 10.04,17.45 11.58,31.55 3.06,27.85 39.04,47.73 64.24,35.48 12.77,-6.21 24.07,-12.16 32.88,-6.99 8.81,5.17 3.1,11.3 3.1,11.3zm80.72 -108.19c0,0 -49.81,63.26 -95.2,54.96 -11.36,-2.07 -15.39,-3.86 -24.56,-10.88 -36.63,-28.06 -23.22,-107.45 -23.22,-107.45 0,0 1.59,-9.18 12.1,-4.84 10.51,4.33 12.84,18.36 15.91,33.84 6.11,30.58 47.91,49.11 74.66,33.09 13.55,-8.12 25.5,-15.82 35.76,-10.95 10.27,4.88 4.54,12.23 4.54,12.23zm71.12 -161.81c0,0 -41.3,87.86 -96.88,90.47 -13.91,0.65 -19.13,-0.35 -31.8,-6.11 -50.67,-23 -56.52,-119.91 -56.52,-119.91 0,0 -0.63,-11.22 12.9,-8.99 13.53,2.23 20.07,18.08 27.91,35.44 15.48,34.26 69.64,44.65 96.7,18.55 13.7,-13.22 25.65,-25.52 39.04,-22.59 13.38,2.94 8.64,13.14 8.64,13.14zm60.35 -169.64c0,0 -46.57,103.77 -111.62,107.97 -16.28,1.05 -22.42,-0.01 -37.39,-6.49 -59.83,-25.9 -68.68,-139.29 -68.68,-139.29 0,0 -0.96,-13.14 14.93,-10.81 15.89,2.34 23.88,20.77 33.42,40.94 18.84,39.81 82.5,50.86 113.67,19.74 15.77,-15.77 29.51,-30.42 45.26,-27.27 15.75,3.16 10.41,15.21 10.41,15.21zm21.99 -194.95c0,0 -25.14,121.39 -93.37,141.16 -17.07,4.95 -23.86,5.26 -41.31,1.89 -69.75,-13.48 -105.85,-132.07 -105.85,-132.07 0,0 -4.12,-13.75 13.33,-15 17.46,-1.26 30.3,16.47 45.2,35.69 29.42,37.93 99.76,34.72 125.59,-5.74 13.08,-20.5 24.25,-39.32 41.76,-39.67 17.49,-0.33 14.65,13.73 14.65,13.73zm-17.94 -219.58c0,0 -5.8,134.84 -75.66,168.01 -17.48,8.31 -24.71,9.83 -44.06,9.24 -77.31,-2.29 -136.83,-123.41 -136.83,-123.41 0,0 -6.83,-14.06 11.7,-18.46 18.55,-4.39 35.45,12.41 54.81,30.46 38.24,35.62 113.27,19.88 133.96,-28.12 10.47,-24.31 19.19,-46.49 37.94,-49.92 18.74,-3.43 18.14,12.19 18.14,12.19zm-41.46 -181.22c0,0 -3.76,134.9 -73.12,169.13 -17.36,8.57 -24.57,10.2 -43.92,9.91 -77.33,-1.12 -138.68,-121.34 -138.68,-121.34 0,0 -7.04,-13.95 11.43,-18.63 18.48,-4.67 35.63,11.88 55.25,29.63 38.78,35.04 113.56,18.15 133.52,-30.14 10.11,-24.46 18.49,-46.77 37.18,-50.49 18.68,-3.71 18.32,11.92 18.32,11.92zm-41.91 -211.13c0,0 -4.23,151.63 -82.19,190.1 -19.51,9.63 -27.61,11.46 -49.36,11.15 -86.92,-1.27 -155.87,-136.37 -155.87,-136.37 0,0 -7.91,-15.69 12.84,-20.95 20.77,-5.26 40.04,13.34 62.11,33.3 43.58,39.37 127.62,20.41 150.06,-33.88 11.36,-27.5 20.78,-52.57 41.79,-56.75 21.01,-4.17 20.6,13.39 20.6,13.39zm-72.04 -215.93c0,0 6.24,151.56 -68.88,195.31 -18.8,10.96 -26.75,13.34 -48.47,14.52 -86.8,4.73 -164.9,-125.3 -164.9,-125.3 0,0 -8.98,-15.1 11.37,-21.78 20.36,-6.68 40.87,10.55 64.26,28.93 46.19,36.29 128.73,11.57 147.38,-44.13 9.44,-28.22 17.11,-53.88 37.78,-59.49 20.66,-5.61 21.46,11.94 21.46,11.94z"/>
   </g>
   <path fill="white" d="M5905.03 1717.85c33.08,0 59.89,26.81 59.89,59.89 0,33.08 -26.81,59.89 -59.89,59.89 -33.07,0 -59.89,-26.81 -59.89,-59.89 0,-33.07 26.81,-59.89 59.89,-59.89zm-3189.42 25.99c23.05,2.46 45.27,7.83 66.49,17.45 28.11,12.75 49.98,30.28 65.62,52.59 15.65,22.32 23.48,47.96 23.48,76.94 0,30.13 -8.26,57.51 -24.78,82.14 -16.51,24.63 -39.25,44.05 -68.24,58.24 -28.97,14.2 -61.72,21.3 -98.23,21.3 -16.81,0 -37.09,-0.87 -60.85,-2.61 -23.76,-1.73 -45.51,-2.61 -65.2,-2.61 -20.28,0 -39.7,0.29 -58.25,0.87 -18.54,0.57 -35.06,0.87 -49.54,0.87 -1.74,0 -2.61,-1.74 -2.61,-5.21 0,-3.48 0.87,-5.22 2.61,-5.22 17.96,0 31.73,-1.45 41.29,-4.35 9.57,-2.9 16.23,-8.69 20,-17.38 3.76,-8.69 5.64,-21.45 5.64,-38.25l0 -402.48c0,-16.81 -1.74,-29.42 -5.21,-37.81 -3.47,-8.4 -10,-14.2 -19.56,-17.39 -9.56,-3.19 -23.33,-4.78 -41.29,-4.78 -1.17,0 -1.74,-1.74 -1.74,-5.21 0,-3.47 0.57,-5.21 1.74,-5.21 14.48,0 30.86,0.44 49.11,1.3 18.26,0.87 37.53,1.3 57.81,1.3 16.23,0 33.61,-0.87 52.15,-2.61 18.56,-1.73 36.23,-2.61 53.03,-2.61 34.77,0 63.89,4.49 87.37,13.47 23.47,8.99 41.29,21.88 53.46,38.69 12.17,16.8 18.25,37.09 18.25,60.85 0,32.45 -12.45,61.29 -37.37,86.5 -16.96,17.15 -38.88,30.88 -65.77,41.19l0.58 0.03zm6593.11 0c23.06,2.46 45.28,7.83 66.49,17.45 28.11,12.75 49.98,30.28 65.63,52.59 15.64,22.32 23.47,47.96 23.47,76.94 0,30.13 -8.26,57.51 -24.77,82.14 -16.51,24.63 -39.26,44.05 -68.25,58.24 -28.97,14.2 -61.72,21.3 -98.22,21.3 -16.81,0 -37.09,-0.87 -60.85,-2.61 -23.76,-1.73 -45.5,-2.61 -65.19,-2.61 -20.29,0 -39.7,0.29 -58.25,0.87 -18.55,0.57 -35.06,0.87 -49.55,0.87 -1.74,0 -2.61,-1.74 -2.61,-5.21 0,-3.48 0.87,-5.22 2.61,-5.22 17.97,0 31.73,-1.45 41.3,-4.35 9.57,-2.9 16.22,-8.69 20,-17.38 3.76,-8.69 5.65,-21.45 5.65,-38.25l0 -402.48c0,-16.81 -1.74,-29.42 -5.22,-37.81 -3.47,-8.4 -9.99,-14.2 -19.55,-17.39 -9.57,-3.19 -23.33,-4.78 -41.3,-4.78 -1.17,0 -1.74,-1.74 -1.74,-5.21 0,-3.47 0.57,-5.21 1.74,-5.21 14.49,0 30.86,0.44 49.12,1.3 18.26,0.87 37.52,1.3 57.81,1.3 16.22,0 33.61,-0.87 52.15,-2.61 18.55,-1.73 36.23,-2.61 53.03,-2.61 34.78,0 63.9,4.49 87.37,13.47 23.48,8.99 41.3,21.88 53.46,38.69 12.17,16.8 18.26,37.09 18.26,60.85 0,32.45 -12.46,61.29 -37.38,86.5 -16.95,17.15 -38.88,30.88 -65.76,41.19l0.57 0.03zm-71.3 -223.35c-11.59,0 -21.01,1.45 -28.24,4.35 -7.25,2.9 -12.32,8.41 -15.22,16.51 -2.9,8.12 -4.35,20.29 -4.35,36.51l0 165.23c0,-0.01 13.45,0.32 15.65,0.38 12.17,0.29 18.83,0.43 20,0.43 35.93,0 62.29,-11.59 79.1,-34.77 16.81,-23.18 25.22,-51.58 25.22,-85.19 0,-21.45 -3.34,-39.99 -10,-55.64 -6.67,-15.65 -16.81,-27.52 -30.43,-35.64 -13.62,-8.11 -30.86,-12.18 -51.72,-12.18zm21.74 512.02c41.15,0 70.99,-10.57 89.54,-31.73 18.54,-21.15 27.82,-50.86 27.82,-89.11 0,-42.87 -11.16,-77.94 -33.47,-105.18 -22.31,-27.24 -56.07,-40.86 -101.27,-40.86 -8.69,0 -20.29,0.15 -34.77,0.43 -17.05,0.34 -17.39,0.97 -17.39,0.97l0 211.58c0,12.17 1.45,22.31 4.35,30.42 2.9,8.12 9.42,14.05 19.56,17.82 10.14,3.77 25.36,5.65 45.64,5.65zm535.16 20c-9.85,0 -22.17,-0.44 -36.95,-1.3 -14.78,-0.87 -30.28,-1.73 -46.51,-2.61 -16.22,-0.87 -32.15,-1.3 -47.81,-1.3 -16.8,0 -34.77,0.29 -53.89,0.87 -19.12,0.57 -35.94,0.87 -50.42,0.87 -1.74,0 -2.61,-1.74 -2.61,-5.21 0,-3.48 0.87,-5.22 2.61,-5.22 18.55,-0.58 32.59,-2.03 42.16,-4.35 9.56,-2.32 16.09,-7.68 19.56,-16.08 3.47,-8.4 5.21,-21.59 5.21,-39.55l0 -402.48c0,-17.96 -1.59,-31.01 -4.78,-39.12 -3.18,-8.11 -9.56,-13.48 -19.12,-16.09 -9.57,-2.61 -23.61,-4.2 -42.16,-4.78 -1.16,0 -1.73,-1.74 -1.73,-5.21 0,-3.47 0.57,-5.21 1.73,-5.21 15.07,0 31.01,0.44 47.81,1.3 16.81,0.87 36.51,1.3 59.11,1.3 22.6,0 43.76,-0.43 63.46,-1.3 19.7,-0.87 37.09,-1.3 52.15,-1.3 1.17,0 1.74,1.74 1.74,5.21 0,3.47 -0.57,5.21 -1.74,5.21 -19.7,0.58 -34.92,2.32 -45.63,5.22 -10.72,2.9 -17.96,8.4 -21.74,16.51 -3.76,8.11 -5.64,21.45 -5.64,39.98l0 171.86 0 0.01c8.57,-1.41 17.25,-2.63 26.08,-3.65 22.6,-2.61 44.04,-3.91 64.33,-3.91 38.24,0 71.14,5.07 98.66,15.2 27.53,10.14 48.69,25.65 63.46,46.52 14.78,20.85 22.17,47.8 22.17,80.84 0,33.61 -8.1,63.02 -24.33,88.23 -16.22,25.21 -38.53,44.77 -66.93,58.68 -28.4,13.91 -61.14,20.86 -98.23,20.86zm-85.19 -282.65l0 208.76c0,11.01 1.59,20.57 4.78,28.68 3.19,8.12 9.71,14.35 19.56,18.69 9.85,4.35 24.92,6.52 45.21,6.52 42.88,0 73.17,-10.86 90.84,-32.6 17.68,-21.73 26.51,-54.61 26.51,-98.66 0,-31.87 -4.2,-57.96 -12.6,-78.23 -8.4,-20.29 -21.73,-35.21 -39.98,-44.77 -18.26,-9.56 -41.87,-14.35 -70.85,-14.35 -14.48,0 -30.13,1.16 -46.94,3.47 -5.45,0.75 -10.97,1.6 -16.55,2.54l0.03 -0.05zm824.25 268.74c1.16,0 1.74,1.74 1.74,5.22 0,3.47 -0.58,5.21 -1.74,5.21 -15.64,0 -32.88,-0.29 -51.72,-0.87 -18.84,-0.58 -38.97,-0.87 -60.42,-0.87 -21.45,0 -41.15,0.29 -59.1,0.87 -17.97,0.57 -34.2,0.87 -48.69,0.87 -1.74,0 -2.61,-1.74 -2.61,-5.21 0,-3.48 0.87,-5.22 2.61,-5.22 19.13,0 33.32,-1.45 42.6,-4.35 9.27,-2.9 15.49,-8.69 18.68,-17.38 3.19,-8.69 4.78,-21.45 4.78,-38.25l0 -209.27 -0.45 -0.07c-4.65,0.65 -9.13,1.47 -13.45,2.45 -12.75,2.9 -25.07,8.98 -36.95,18.25 -11.88,9.28 -24.63,22.89 -38.25,40.86 -13.62,17.96 -28.83,42.02 -45.63,72.15 -22.03,38.25 -39.26,67.52 -51.72,87.8 -12.46,20.29 -22.02,34.48 -28.69,42.6 -6.66,8.11 -12.17,12.75 -16.51,13.91 -4.35,1.16 -9.12,1.74 -14.35,1.74l-105.18 0c-1.17,0 -1.74,-1.74 -1.74,-5.21 0,-3.48 0.57,-5.22 1.74,-5.22 19.12,-0.58 35.21,-6.52 48.24,-17.82 13.04,-11.3 26.37,-28.25 39.99,-50.86 13.61,-22.6 30.86,-50.71 51.71,-84.32 19.13,-31.87 37.39,-56.22 54.77,-73.02 17.39,-16.81 36.08,-28.84 56.07,-36.07 10.56,-3.82 21.73,-6.89 33.51,-9.17l0.02 0.01c-48.78,-4.19 -87.05,-15.77 -114.81,-34.74 -34.77,-23.76 -52.15,-55.63 -52.15,-95.62 0,-26.66 7.68,-49.98 23.03,-69.97 15.37,-20 36.23,-35.64 62.59,-46.95 26.37,-11.3 56.06,-16.95 89.1,-16.95 12.18,0 28.4,0.87 48.68,2.61 20.29,1.74 37.67,2.61 52.16,2.61 21.45,0 41.43,-0.43 59.99,-1.3 18.54,-0.87 35.64,-1.3 51.28,-1.3 1.16,0 1.74,1.74 1.74,5.21 0,3.47 -0.58,5.21 -1.74,5.21 -20.86,0 -36.23,1.59 -46.07,4.78 -9.85,3.19 -16.38,8.99 -19.57,17.39 -3.18,8.39 -4.78,21.01 -4.78,37.81l0 402.48c0,16.8 1.59,29.56 4.78,38.25 3.19,8.69 9.72,14.48 19.57,17.38 9.84,2.9 25.5,4.35 46.94,4.35zm-301.65 -423.35c0,40.57 10.73,73.6 32.16,99.11 21.45,25.49 53.61,38.24 96.5,38.24 6.16,0 13.02,-0.28 19.12,-1.01l0 -173.72c0,-16.8 -3.04,-29.84 -9.13,-39.12 -6.08,-9.27 -13.62,-15.64 -22.6,-19.12 -8.98,-3.48 -18.39,-5.22 -28.24,-5.22 -58.54,0 -87.8,33.62 -87.8,100.85zm-6936.16 237.32c0,-24.34 -8.11,-42.89 -24.34,-55.64 -16.22,-12.75 -40.57,-19.12 -73.02,-19.12l-82.58 0 0 197.33c0,12.18 1.59,22.17 4.78,29.99 3.19,7.83 8.26,13.33 15.21,16.51 6.95,3.18 16.81,4.78 29.56,4.78l42.59 0c39.42,0 71.29,-9.41 95.62,-28.24 24.34,-18.84 41.73,-46.8 52.16,-83.89 0.58,-1.74 2.46,-2.32 5.65,-1.74 3.19,0.57 4.78,1.45 4.78,2.61 -2.32,16.22 -4.35,35.64 -6.09,58.24 -1.74,22.6 -2.61,43.47 -2.61,62.59 0,8.69 -4.35,13.04 -13.03,13.04l-377.28 0c-1.74,0 -2.61,-1.74 -2.61,-5.21 0,-3.48 0.87,-5.22 2.61,-5.22 19.12,0 33.33,-1.45 42.6,-4.35 9.27,-2.9 15.5,-8.69 18.69,-17.38 3.18,-8.69 4.78,-21.45 4.78,-38.25l0 -402.48c0,-16.81 -1.59,-29.42 -4.78,-37.81 -3.19,-8.4 -9.42,-14.2 -18.69,-17.39 -9.27,-3.19 -23.48,-4.78 -42.6,-4.78 -1.74,0 -2.61,-1.74 -2.61,-5.21 0,-3.47 0.87,-5.21 2.61,-5.21l361.63 0c5.8,0 8.69,2.61 8.69,7.82l1.74 113.01c0,1.16 -1.45,1.89 -4.35,2.17 -2.9,0.29 -4.92,-0.43 -6.09,-2.17 -6.37,-33.03 -19.7,-57.66 -39.98,-73.9 -20.29,-16.22 -46.95,-24.33 -79.98,-24.33l-35.64 0c-14.48,0 -25.93,1.59 -34.34,4.78 -8.39,3.19 -14.34,8.39 -17.81,15.64 -3.48,7.25 -5.22,16.96 -5.22,29.12l0 177.34 83.45 0c32.45,0 56.52,-5.5 72.16,-16.51 15.65,-11.02 23.47,-26.95 23.47,-47.81 0,-1.74 1.59,-2.61 4.78,-2.61 3.19,0 4.78,0.87 4.78,2.61 0,18.55 -0.15,33.03 -0.44,43.46 -0.29,10.44 -0.44,21.15 -0.44,32.16 0,13.91 0.44,27.67 1.31,41.3 0.87,13.62 1.3,28.54 1.3,44.77 0,1.16 -1.74,1.73 -5.22,1.73 -3.47,0 -5.21,-0.57 -5.21,-1.73zm149.69 196.46c-1.73,0 -2.61,-1.74 -2.61,-5.21 0,-3.48 0.87,-5.22 2.61,-5.22 19.7,0 34.78,-1.45 45.21,-4.35 10.44,-2.9 17.24,-8.69 20.43,-17.38 3.19,-8.69 4.78,-21.45 4.78,-38.25l0 -402.48c0,-16.81 -1.59,-29.42 -4.78,-37.81 -3.19,-8.4 -9.85,-14.2 -20,-17.39 -10.14,-3.19 -25.06,-4.78 -44.76,-4.78 -1.74,0 -2.61,-1.74 -2.61,-5.21 0,-3.47 0.87,-5.21 2.61,-5.21 14.48,0 30.86,0.44 49.11,1.3 18.26,0.87 37.53,1.3 57.81,1.3 22.61,0 43.76,-0.43 63.46,-1.3 19.71,-0.87 37.09,-1.3 52.16,-1.3 1.16,0 1.73,1.74 1.73,5.21 0,3.47 -0.57,5.21 -1.73,5.21 -19.7,0 -34.62,1.74 -44.77,5.22 -10.14,3.47 -16.95,9.56 -20.42,18.26 -3.48,8.69 -5.22,21.45 -5.22,38.24l0 182.98c23.88,-0.87 43.58,-1.29 59.11,-1.29l6.09 0.05 95.62 -133.05c26.66,-35.93 38.97,-63.31 36.94,-82.15 -2.03,-18.83 -14.92,-28.25 -38.68,-28.25 -1.16,0 -1.74,-1.74 -1.74,-5.21 0,-3.47 0.58,-5.21 1.74,-5.21 13.91,0 29.12,0.44 45.63,1.3 16.52,0.87 36.37,1.3 59.55,1.3 24.92,0 44.77,-0.43 59.54,-1.3 14.78,-0.87 28.84,-1.3 42.17,-1.3 1.73,0 2.61,1.74 2.61,5.21 0,3.47 -0.87,5.21 -2.61,5.21 -17.97,0 -36.52,3.92 -55.64,11.74 -19.13,7.83 -37.67,18.98 -55.64,33.48 -17.96,14.48 -35.05,31.87 -51.28,52.15l-116.75 147.15c9.05,0.8 17.09,2.02 24.17,3.68 13.63,3.18 26.08,9.27 37.39,18.25 11.3,8.99 23.61,21.74 36.95,38.25 13.32,16.52 29.55,38.11 48.67,64.76 23.19,31.87 43.47,59.11 60.85,81.72 17.39,22.6 34.49,39.98 51.28,52.16 16.81,12.17 35.35,18.54 55.64,19.12 1.73,0 2.61,1.74 2.61,5.22 0,3.47 -0.87,5.21 -2.61,5.21l-125.18 0c-5.21,0 -10,-0.87 -14.35,-2.61 -4.35,-1.74 -10.43,-6.95 -18.25,-15.66 -7.83,-8.69 -18.98,-23.03 -33.48,-43.02 -14.49,-20 -34.48,-48.26 -59.98,-84.77 -18.55,-26.08 -33.76,-47.51 -45.64,-64.32 -11.88,-16.81 -22.46,-29.7 -31.73,-38.69 -9.27,-8.99 -19.12,-15.36 -29.56,-19.12 -10.43,-3.76 -23.47,-5.65 -39.12,-5.65l-4.35 0.05 0 203.36c0,16.8 1.74,29.56 5.22,38.25 3.47,8.69 10.14,14.48 19.99,17.38 9.86,2.9 24.92,4.35 45.21,4.35 1.16,0 1.73,1.74 1.73,5.22 0,3.47 -0.57,5.21 -1.73,5.21 -15.65,0 -33.18,-0.29 -52.6,-0.87 -19.4,-0.58 -40.41,-0.87 -63.02,-0.87 -20.28,0 -39.69,0.29 -58.24,0.87 -18.55,0.57 -35.06,0.87 -49.55,0.87zm750.38 -525.06c-35.35,0 -64.18,11.01 -86.5,33.04 -22.31,22.02 -39.84,54.47 -52.6,97.36 0,1.74 -1.59,2.47 -4.78,2.18 -3.18,-0.29 -4.78,-1.01 -4.78,-2.18 1.16,-8.11 2.32,-19.28 3.47,-33.47 1.16,-14.2 2.46,-29.7 3.91,-46.51 1.45,-16.81 2.61,-33.18 3.48,-49.12 0.87,-15.94 1.3,-28.83 1.3,-38.69 0,-2.9 1.59,-4.35 4.78,-4.35 3.19,0 4.78,1.45 4.78,4.35 0,5.8 3.04,10.01 9.13,12.61 6.08,2.61 12.89,4.35 20.42,5.21 7.54,0.87 13.91,1.3 19.12,1.3 49.84,1.74 108.09,2.61 174.73,2.61 41.14,0 73.74,-0.43 97.79,-1.3 24.04,-0.87 47.38,-1.3 69.98,-1.3 20.86,0 36.66,-1.3 47.37,-3.91 10.73,-2.61 17.54,-8.55 20.43,-17.83 0.58,-2.32 2.32,-3.47 5.21,-3.47 2.9,0 4.35,1.16 4.35,3.47 -0.58,9.28 -1.45,21.88 -2.62,37.81 -1.16,15.94 -2.02,32.75 -2.6,50.42 -0.58,17.68 -1.16,33.9 -1.74,48.69 -0.57,14.77 -0.87,25.93 -0.87,33.47 0,1.17 -1.59,1.74 -4.78,1.74 -3.19,0 -5.07,-0.57 -5.65,-1.74 -6.38,-45.79 -20.28,-78.96 -41.73,-99.53 -21.44,-20.57 -50.13,-30.86 -86.05,-30.86 -15.64,0 -27.52,1.45 -35.64,4.35 -8.1,2.9 -13.62,8.26 -16.51,16.08 -2.9,7.83 -4.35,18.98 -4.35,33.47l0 400.75c0,16.8 1.89,29.56 5.65,38.25 3.77,8.69 11.02,14.48 21.74,17.38 10.72,2.9 27.09,4.35 49.12,4.35 1.73,0 2.61,1.74 2.61,5.22 0,3.47 -0.87,5.21 -2.61,5.21 -15.65,0 -33.47,-0.29 -53.46,-0.87 -20,-0.58 -41.87,-0.87 -65.63,-0.87 -22.6,0 -43.76,0.29 -63.46,0.87 -19.7,0.57 -37.96,0.87 -54.77,0.87 -1.17,0 -1.74,-1.74 -1.74,-5.21 0,-3.48 0.57,-5.22 1.74,-5.22 22.03,0 38.53,-1.45 49.55,-4.35 11,-2.9 18.39,-8.69 22.17,-17.38 3.76,-8.69 5.65,-21.45 5.65,-38.25l0 -402.48c0,-14.49 -1.3,-25.36 -3.91,-32.6 -2.62,-7.24 -7.97,-12.31 -16.09,-15.21 -8.11,-2.9 -20,-4.35 -35.64,-4.35zm692.99 535.48c-41.72,0 -79.54,-7.39 -113.44,-22.17 -33.9,-14.78 -62.88,-35.21 -86.93,-61.28 -24.05,-26.08 -42.6,-56.07 -55.63,-89.97 -13.04,-33.9 -19.56,-69.99 -19.56,-108.23 0,-46.95 9.12,-88.09 27.38,-123.44 18.26,-35.35 42.45,-64.76 72.58,-88.23 30.14,-23.48 63.17,-41 99.11,-52.6 35.93,-11.58 71.57,-17.38 106.92,-17.38 42.89,0 81.29,7.68 115.19,23.03 33.9,15.37 62.73,36.08 86.49,62.16 23.76,26.08 41.86,55.63 54.33,88.67 12.46,33.03 18.68,66.93 18.68,101.71 0,40.56 -8.1,78.23 -24.33,113 -16.22,34.77 -38.4,65.19 -66.5,91.28 -28.11,26.08 -60.56,46.5 -97.36,61.28 -36.8,14.77 -75.77,22.17 -116.92,22.17zm29.56 -20.86c34.77,0 65.92,-9.28 93.45,-27.82 27.52,-18.55 49.27,-45.93 65.2,-82.14 15.94,-36.23 23.9,-80.13 23.9,-131.71 0,-53.89 -8.69,-101.7 -26.08,-143.43 -17.38,-41.73 -42.3,-74.62 -74.75,-98.67 -32.45,-24.05 -71.28,-36.07 -116.49,-36.07 -56.22,0 -99.83,20.13 -130.83,60.41 -31.01,40.28 -46.51,96.06 -46.51,167.35 0,41.72 5.21,80.4 15.65,116.05 10.44,35.64 25.06,66.79 43.9,93.45 18.84,26.66 41.14,47.08 66.93,61.29 25.78,14.19 54.33,21.29 85.63,21.29zm513.92 -63.46c0,17.39 2.03,30.57 6.09,39.55 4.06,8.98 12.6,15.21 25.65,18.69 13.04,3.47 32.59,5.21 58.68,5.21 1.73,0 2.61,1.74 2.61,5.22 0,3.47 -0.87,5.21 -2.61,5.21 -18.55,0 -38.69,-0.29 -60.42,-0.87 -21.74,-0.58 -45.34,-0.87 -70.85,-0.87 -20.28,0 -39.69,0.29 -58.25,0.87 -18.54,0.57 -35.05,0.87 -49.54,0.87 -1.74,0 -2.61,-1.74 -2.61,-5.21 0,-3.48 0.87,-5.22 2.61,-5.22 19.12,0 33.32,-1.45 42.6,-4.35 9.27,-2.9 15.5,-8.69 18.68,-17.38 3.19,-8.69 4.78,-21.45 4.78,-38.25l0 -402.48c0,-16.81 -1.59,-29.42 -4.78,-37.81 -3.18,-8.4 -9.41,-14.2 -18.68,-17.39 -9.28,-3.19 -23.48,-4.78 -42.6,-4.78 -1.74,0 -2.61,-1.74 -2.61,-5.21 0,-3.47 0.87,-5.21 2.61,-5.21 14.49,0 30.86,0.44 49.12,1.3 18.26,0.87 37.52,1.3 57.81,1.3 13.91,0 32.02,-0.87 54.34,-2.61 22.3,-1.73 43.89,-2.61 64.76,-2.61 35.34,0 66.79,4.78 94.31,14.34 27.53,9.57 49.42,24.78 65.64,45.64 16.23,20.86 24.92,48.39 26.08,82.58 0.58,30.14 -4.63,56.22 -15.64,78.23 -11.02,22.03 -25.94,40.14 -44.78,54.34 -18.83,14.19 -39.55,24.92 -62.16,32.16 -22.59,7.24 -45.2,10.86 -67.8,10.86 -6.37,0 -13.19,-0.29 -20.43,-0.87 -7.24,-0.57 -14.34,-1.73 -21.29,-3.47 -1.74,-0.58 -2.32,-2.75 -1.74,-6.52 0.58,-3.76 2.03,-5.36 4.35,-4.78 4.64,1.17 9.85,2.03 15.65,2.62 5.79,0.57 10.72,0.87 14.77,0.87 19.12,0 36.8,-5.21 53.03,-15.65 16.23,-10.44 29.41,-26.37 39.55,-47.81 10.15,-21.45 15.21,-48.4 15.21,-80.85 0,-30.71 -4.92,-56.79 -14.77,-78.23 -9.85,-21.44 -23.61,-37.81 -41.3,-49.11 -17.67,-11.31 -39.25,-16.96 -64.76,-16.96 -13.32,0 -23.76,1.3 -31.3,3.92 -7.52,2.61 -12.74,7.97 -15.64,16.08 -2.9,8.11 -4.35,20.58 -4.35,37.38l0 397.27zm836.19 70.41c24.35,0 43.9,-6.52 58.68,-19.56 14.78,-13.03 25.66,-29.99 32.6,-50.86 6.95,-20.86 10.44,-42.88 10.44,-66.07 0,-47.52 -12.9,-83.16 -38.69,-106.92 -25.78,-23.76 -61.57,-35.64 -107.35,-35.64 -2.32,0 -3.47,-1.74 -3.47,-5.21 0,-3.48 1.16,-5.22 3.47,-5.22 44.04,0 76.49,-11.29 97.36,-33.9 20.86,-22.59 31.3,-53.03 31.3,-91.28 0,-39.4 -7.83,-69.82 -23.48,-91.27 -15.65,-21.45 -37.67,-32.16 -66.06,-32.16 -19.13,0 -38.11,6.08 -56.94,18.26 -18.84,12.17 -35.64,29.27 -50.42,51.28 -14.77,22.02 -25.94,48.1 -33.48,78.24 -0.57,1.74 -2.32,2.32 -5.21,1.74 -2.89,-0.58 -4.34,-1.45 -4.34,-2.62l12.17 -114.75c1.16,-6.95 2.32,-11.59 3.47,-13.91 1.16,-2.32 4.35,-4.35 9.57,-6.09 23.76,-8.12 47.23,-14.05 70.41,-17.82 23.19,-3.76 44.91,-5.65 65.2,-5.65 38.25,0 69.69,5.5 94.31,16.51 24.63,11.01 42.89,25.36 54.77,43.03 11.88,17.67 17.83,36.95 17.83,57.81 0,20.28 -5.21,39.26 -15.65,56.94 -10.43,17.68 -23.91,33.18 -40.42,46.52 -16.52,13.32 -34.2,24.04 -53.03,32.16 -7.07,3.04 -13.99,5.6 -20.78,7.66l0 0.03c25.37,1.86 48.39,7.27 69.03,16.22 26.08,11.29 46.65,27.23 61.72,47.8 15.07,20.57 22.6,45.07 22.6,73.46 0,31.88 -9.71,60.27 -29.12,85.19 -19.41,24.92 -45.35,44.48 -77.81,58.68 -32.45,14.2 -68.38,21.3 -107.79,21.3 -24.33,0 -48.39,-2.75 -72.16,-8.26 -23.76,-5.5 -42.3,-13.76 -55.63,-24.78 -5.21,-2.9 -8.39,-5.5 -9.56,-7.81 -1.16,-2.32 -2.02,-6.38 -2.61,-12.18l-10.44 -110.4c0,-1.16 1.59,-2.03 4.78,-2.61 3.19,-0.58 5.08,0 5.65,1.74 5.21,31.29 15.93,58.09 32.16,80.4 16.22,22.31 35.49,39.55 57.81,51.72 22.31,12.18 45.34,18.26 69.1,18.26zm834.7 -6.95c5.21,0 8.26,0.44 9.12,1.3 0.87,0.87 1.3,3.92 1.3,9.13 0,8.69 -0.72,18.39 -2.17,29.12 -1.45,10.72 -3.04,25.36 -4.78,43.89 -1.74,18.56 -2.61,44.05 -2.61,76.5 0,2.32 -1.73,3.48 -5.21,3.48 -3.47,0 -5.21,-1.16 -5.21,-3.48 0,-48.69 -13.33,-85.77 -39.99,-111.27 -26.66,-25.5 -66.65,-38.24 -119.96,-38.24l-237.32 0c-31.3,0 -56.94,4.78 -76.93,14.34 -20,9.57 -34.77,25.21 -44.34,46.95 -9.56,21.74 -14.35,51.15 -14.35,88.23 0,2.32 -1.73,3.48 -5.2,3.48 -3.48,0 -5.22,-1.16 -5.22,-3.48 0,-24.34 -0.57,-44.91 -1.74,-61.72 -1.16,-16.81 -2.61,-31.01 -4.35,-42.6 -1.73,-11.58 -3.18,-21.29 -4.35,-29.12 -1.16,-7.83 -1.73,-14.34 -1.73,-19.56 0,-5.21 0.43,-8.26 1.3,-9.12 0.87,-0.87 3.62,-1.31 8.26,-1.31 23.76,0 45.34,-7.97 64.76,-23.9 19.41,-15.94 36.8,-37.24 52.16,-63.9 15.36,-26.66 28.83,-56.22 40.42,-88.67 11.58,-32.45 21.01,-65.48 28.25,-99.1 7.24,-33.61 12.74,-65.49 16.51,-95.62 3.76,-30.14 5.65,-56.22 5.65,-78.23 0,-14.49 -2.9,-26.8 -8.69,-36.95 -5.8,-10.14 -15.36,-18.11 -28.69,-23.91 -13.32,-5.8 -31.58,-8.69 -54.77,-8.69 -1.73,0 -2.61,-1.74 -2.61,-5.21 0,-3.47 0.87,-5.21 2.61,-5.21 3.48,0 13.33,0 29.56,0 16.23,0 36.8,0 61.72,0 24.92,0 51.87,0 80.84,0 28.98,0 57.66,0 86.06,0 28.41,0 54.77,0 79.11,0 24.34,0 44.19,0 59.55,0 15.35,0 24.19,0 26.51,0 1.73,0 2.61,1.74 2.61,5.21 0,3.47 -0.87,5.21 -2.61,5.21 -19.7,0 -34.63,1.59 -44.77,4.78 -10.14,3.19 -16.95,8.99 -20.43,17.39 -3.48,8.39 -5.22,21.01 -5.22,37.81l0 402.48c0,14.48 0.44,25.93 1.31,34.34 0.87,8.39 3.76,14.34 8.69,17.81 4.92,3.48 13.33,5.66 25.21,6.53 11.88,0.87 29.12,1.3 51.72,1.3zm-169.51 -61.72l0 -399.01c0,-17.38 -0.87,-29.41 -2.62,-36.07 -1.73,-6.66 -6.08,-10.72 -13.03,-12.17 -6.95,-1.45 -19.13,-2.17 -36.51,-2.17l-47.81 0c-16.81,0 -28.54,2.17 -35.2,6.52 -6.67,4.35 -10.87,12.89 -12.61,25.65 -1.74,12.74 -3.76,31.58 -6.09,56.5 -1.16,16.22 -3.47,36.23 -6.95,59.99 -3.47,23.75 -8.11,49.69 -13.91,77.8 -5.8,28.11 -12.9,56.79 -21.29,86.06 -8.4,29.27 -18.12,56.94 -29.12,83.02 -11.02,26.08 -23.77,49.11 -38.25,69.1 -14.49,20 -31.01,35.5 -49.55,46.51l-3.47 -11.3 259.91 0c18.54,0 31.73,-0.58 39.55,-1.74 7.82,-1.16 12.6,-5.21 14.34,-12.17 1.74,-6.95 2.62,-19.13 2.62,-36.51zm532.18 82.58c-41.72,0 -79.54,-7.39 -113.44,-22.17 -33.9,-14.78 -62.88,-35.21 -86.93,-61.28 -24.05,-26.08 -42.6,-56.07 -55.63,-89.97 -13.04,-33.9 -19.57,-69.99 -19.57,-108.23 0,-46.95 9.13,-88.09 27.38,-123.44 18.26,-35.35 42.46,-64.76 72.59,-88.23 30.14,-23.48 63.17,-41 99.11,-52.6 35.93,-11.58 71.56,-17.38 106.92,-17.38 42.89,0 81.28,7.68 115.18,23.03 33.9,15.37 62.73,36.08 86.49,62.16 23.77,26.08 41.87,55.63 54.34,88.67 12.45,33.03 18.68,66.93 18.68,101.71 0,40.56 -8.11,78.23 -24.33,113 -16.23,34.77 -38.4,65.19 -66.5,91.28 -28.11,26.08 -60.56,46.5 -97.36,61.28 -36.79,14.77 -75.77,22.17 -116.91,22.17zm29.56 -20.86c34.77,0 65.92,-9.28 93.45,-27.82 27.52,-18.55 49.26,-45.93 65.2,-82.14 15.93,-36.23 23.9,-80.13 23.9,-131.71 0,-53.89 -8.69,-101.7 -26.08,-143.43 -17.38,-41.73 -42.31,-74.62 -74.76,-98.67 -32.45,-24.05 -71.27,-36.07 -116.49,-36.07 -56.22,0 -99.82,20.13 -130.82,60.41 -31.01,40.28 -46.51,96.06 -46.51,167.35 0,41.72 5.21,80.4 15.65,116.05 10.43,35.64 25.06,66.79 43.89,93.45 18.85,26.66 41.15,47.08 66.94,61.29 25.78,14.19 54.33,21.29 85.63,21.29zm513.92 -63.46c0,17.39 2.03,30.57 6.09,39.55 4.06,8.98 12.6,15.21 25.65,18.69 13.03,3.47 32.59,5.21 58.68,5.21 1.73,0 2.61,1.74 2.61,5.22 0,3.47 -0.87,5.21 -2.61,5.21 -18.55,0 -38.69,-0.29 -60.42,-0.87 -21.74,-0.58 -45.35,-0.87 -70.85,-0.87 -20.28,0 -39.69,0.29 -58.25,0.87 -18.54,0.57 -35.06,0.87 -49.54,0.87 -1.74,0 -2.61,-1.74 -2.61,-5.21 0,-3.48 0.87,-5.22 2.61,-5.22 19.12,0 33.32,-1.45 42.59,-4.35 9.28,-2.9 15.51,-8.69 18.69,-17.38 3.19,-8.69 4.78,-21.45 4.78,-38.25l0 -402.48c0,-16.81 -1.59,-29.42 -4.78,-37.81 -3.18,-8.4 -9.41,-14.2 -18.69,-17.39 -9.27,-3.19 -23.47,-4.78 -42.59,-4.78 -1.74,0 -2.61,-1.74 -2.61,-5.21 0,-3.47 0.87,-5.21 2.61,-5.21 14.48,0 30.86,0.44 49.12,1.3 18.26,0.87 37.52,1.3 57.8,1.3 13.92,0 32.03,-0.87 54.34,-2.61 22.31,-1.73 43.9,-2.61 64.76,-2.61 35.35,0 66.8,4.78 94.32,14.34 27.53,9.57 49.42,24.78 65.64,45.64 16.22,20.86 24.92,48.39 26.08,82.58 0.58,30.14 -4.64,56.22 -15.64,78.23 -11.02,22.03 -25.94,40.14 -44.78,54.34 -18.83,14.19 -39.55,24.92 -62.16,32.16 -22.59,7.24 -45.2,10.86 -67.8,10.86 -6.37,0 -13.19,-0.29 -20.43,-0.87 -7.25,-0.57 -14.34,-1.73 -21.29,-3.47 -1.74,-0.58 -2.32,-2.75 -1.74,-6.52 0.58,-3.76 2.03,-5.36 4.35,-4.78 4.64,1.17 9.84,2.03 15.64,2.62 5.8,0.57 10.73,0.87 14.78,0.87 19.12,0 36.8,-5.21 53.03,-15.65 16.22,-10.44 29.41,-26.37 39.55,-47.81 10.14,-21.45 15.21,-48.4 15.21,-80.85 0,-30.71 -4.93,-56.79 -14.77,-78.23 -9.85,-21.44 -23.62,-37.81 -41.3,-49.11 -17.67,-11.31 -39.26,-16.96 -64.76,-16.96 -13.32,0 -23.76,1.3 -31.3,3.92 -7.53,2.61 -12.74,7.97 -15.64,16.08 -2.9,8.11 -4.35,20.58 -4.35,37.38l0 397.27zm629.55 84.32c-41.73,0 -79.55,-7.39 -113.45,-22.17 -33.9,-14.78 -62.88,-35.21 -86.93,-61.28 -24.05,-26.08 -42.59,-56.07 -55.63,-89.97 -13.03,-33.9 -19.56,-69.99 -19.56,-108.23 0,-46.95 9.12,-88.09 27.38,-123.44 18.26,-35.35 42.45,-64.76 72.58,-88.23 30.14,-23.48 63.17,-41 99.11,-52.6 35.93,-11.58 71.57,-17.38 106.93,-17.38 42.88,0 81.28,7.68 115.18,23.03 33.9,15.37 62.73,36.08 86.49,62.16 23.76,26.08 41.87,55.63 54.33,88.67 12.46,33.03 18.69,66.93 18.69,101.71 0,40.56 -8.11,78.23 -24.34,113 -16.22,34.77 -38.39,65.19 -66.5,91.28 -28.12,26.08 -60.56,46.5 -97.36,61.28 -36.8,14.77 -75.77,22.17 -116.91,22.17zm29.56 -20.86c34.77,0 65.91,-9.28 93.45,-27.82 27.52,-18.55 49.26,-45.93 65.19,-82.14 15.94,-36.23 23.91,-80.13 23.91,-131.71 0,-53.89 -8.69,-101.7 -26.08,-143.43 -17.39,-41.73 -42.31,-74.62 -74.76,-98.67 -32.45,-24.05 -71.28,-36.07 -116.49,-36.07 -56.22,0 -99.83,20.13 -130.83,60.41 -31.01,40.28 -46.5,96.06 -46.5,167.35 0,41.72 5.21,80.4 15.64,116.05 10.44,35.64 25.06,66.79 43.9,93.45 18.84,26.66 41.14,47.08 66.93,61.29 25.79,14.19 54.34,21.29 85.63,21.29zm-6023.94 -518.1c-11.58,0 -21,1.45 -28.24,4.35 -7.25,2.9 -12.32,8.41 -15.21,16.51 -2.9,8.12 -4.35,20.29 -4.35,36.51l0 165.23c0,-0.01 13.45,0.32 15.64,0.38 12.18,0.29 18.84,0.43 20,0.43 35.93,0 62.29,-11.59 79.11,-34.77 16.8,-23.18 25.21,-51.58 25.21,-85.19 0,-21.45 -3.34,-39.99 -10,-55.64 -6.66,-15.65 -16.81,-27.52 -30.43,-35.64 -13.61,-8.11 -30.86,-12.18 -51.72,-12.18zm21.74 512.02c41.15,0 70.99,-10.57 89.54,-31.73 18.55,-21.15 27.82,-50.86 27.82,-89.11 0,-42.87 -11.16,-77.94 -33.46,-105.18 -22.32,-27.24 -56.08,-40.86 -101.28,-40.86 -8.69,0 -20.28,0.15 -34.77,0.43 -17.04,0.34 -17.38,0.97 -17.38,0.97l0 211.58c0,12.17 1.45,22.31 4.35,30.42 2.89,8.12 9.41,14.05 19.56,17.82 10.14,3.77 25.35,5.65 45.63,5.65z"/>
   <path fill="#FF8E16" fill-rule="nonzero" d="M9032.5 2697.53l-0.51 -178.03 129.7 0 0.27 27.73 -97.16 -0.27 0.1 46.56 85.87 0.5 0.25 26.71 -86.06 -0.5 0.1 49.58 100.2 0.26 0.26 27.46 -133.02 0zm-5147.67 2.55c-15.1,0 -28.78,-2.55 -41.07,-7.64 -12.3,-5.08 -22.52,-12.45 -30.65,-22.12l20.85 -20.35c6.62,7.13 14.04,12.42 22.25,15.9 8.23,3.48 17.17,5.21 26.84,5.21 8.48,0 16.36,-1.56 23.66,-4.71 7.29,-3.14 13.56,-7.46 18.81,-12.96 5.26,-5.51 9.32,-12.08 12.21,-19.71 1.61,-4.25 2.77,-8.75 3.48,-13.48l-79.52 0 0 -26.2 79.04 0c-0.71,-3.7 -1.71,-7.27 -3,-10.68 -2.89,-7.62 -6.95,-14.19 -12.21,-19.7 -5.26,-5.51 -11.52,-9.84 -18.81,-12.97 -7.3,-3.14 -15.18,-4.71 -23.66,-4.71 -9.66,0 -18.61,1.73 -26.84,5.21 -8.21,3.47 -15.63,8.78 -22.25,15.9l-20.85 -20.35c8.14,-9.66 18.36,-17.04 30.65,-22.12 12.29,-5.09 25.97,-7.63 41.07,-7.63 13.05,0 25.09,2.25 36.12,6.73 11.01,4.5 20.64,10.86 28.86,19.08 8.22,8.23 14.59,17.93 19.07,29.12 4.49,11.2 6.74,23.41 6.74,36.63 0,13.22 -2.25,25.43 -6.74,36.62 -4.48,11.19 -10.85,20.9 -19.07,29.12 -8.22,8.22 -17.85,14.58 -28.86,19.08 -11.03,4.49 -23.07,6.74 -36.12,6.74zm271.46 -2.55l-0.1 -76.31 -92.21 -0.24 0 76.55 -32.56 0 -0.51 -178.03 33.06 0 0 73.51 92.17 0.24 -0.1 -73.75 32.81 0 0.26 178.03 -32.82 0zm133.97 -104.01l85.87 0.5 0.26 26.71 -86.06 -0.5 0.09 49.58 100.21 0.26 0.25 27.46 -133.01 0 -0.51 -178.03 129.7 0 0.26 27.73 -97.15 -0.27 0.09 46.56zm155.9 104.01l0 -178.03 73.24 0c15.77,0 29.29,2.55 40.57,7.63 11.28,5.08 19.96,12.38 26.08,21.87 6.1,9.5 9.15,20.78 9.15,33.83 0,13.05 -3.05,24.33 -9.15,33.83 -6.11,9.49 -14.8,16.79 -26.08,21.87 -11.28,5.09 -24.8,7.64 -40.57,7.64l-40.08 0 -0.1 51.37 -33.06 0zm33.13 -79.35l38.59 0c14.59,0 25.56,-3.1 32.94,-9.29 7.37,-6.19 11.07,-14.88 11.07,-26.07 0,-11.36 -3.7,-20.09 -11.07,-26.2 -7.37,-6.11 -18.35,-9.16 -32.94,-9.16l-38.59 0 0 70.71zm165.85 79.35l0 -178.03 120.8 0 -0.25 27.98 -88.21 0 -0.04 150.06 -32.3 0zm167.18 0l0 -178.03 32.3 0 0.26 126.4 95.63 -126.4 30.51 0 0.26 178.03 -32.56 0 0 -126.15 -95.62 126.15 -30.78 0zm325.63 0l0 -49.66 -44 0.06 -3.46 -0.04 -33.16 49.64 -34.85 0 38.05 -54.97c-1.75,-0.65 -3.45,-1.36 -5.11,-2.13 -10.76,-5 -19.03,-12.21 -24.79,-21.62 -5.77,-9.41 -8.65,-20.72 -8.65,-33.96 0,-13.73 3.05,-25.48 9.16,-35.22 6.11,-9.75 14.75,-17.21 25.95,-22.38 11.19,-5.17 24.33,-7.76 39.42,-7.76l74.01 0 0 178.03 -32.56 0zm0 -76.49l0 -73.68 -40.44 0.11c-13.56,0 -23.95,3.1 -31.15,9.29 -7.2,6.18 -10.8,15.38 -10.8,27.59 0,11.7 3.43,20.72 10.29,27.09 6.87,6.35 17,9.53 30.4,9.53l41.71 0.07zm314.46 -27.03l30.75 0 43.77 -74.52 35.1 0 -51.89 85.33 55.71 92.7 -38.15 0 -44.88 -75.03 -30.41 0 0 75.03 -32.3 0 0 -75.03 -30.42 0 -45.11 75.03 -38.15 0 55.84 -92.9 -52.02 -85.14 35.1 0 43.56 74.52 31.21 0 0 -74.52 32.3 0 0 74.52zm156.01 103.51l0 -178.03 32.3 0 0.25 126.4 95.63 -126.4 30.52 0 0.25 178.03 -32.55 0 0 -126.15 -95.62 126.15 -30.77 0zm272.73 2.55c-14.59,0 -28.02,-1.74 -40.32,-5.21 -12.29,-3.48 -22.51,-8.27 -30.64,-14.37l10.68 -25.18c7.46,5.43 16.36,9.62 26.7,12.6 10.34,2.97 21.62,4.44 33.83,4.44 15.94,0 27.73,-2.5 35.35,-7.5 7.62,-5 11.45,-11.73 11.45,-20.21 0,-5.6 -1.53,-10.35 -4.58,-14.25 -3.05,-3.89 -7.37,-6.77 -12.97,-8.64 -5.59,-1.87 -12.37,-2.8 -20.35,-2.8l-43.75 0 0 -25.94 41.97 0c10.51,0 18.48,-1.86 23.91,-5.59 5.43,-3.74 8.14,-9.23 8.14,-16.53 0,-6.28 -1.74,-11.32 -5.21,-15.13 -3.48,-3.82 -8.1,-6.57 -13.87,-8.27 -5.76,-1.69 -12.12,-2.55 -19.07,-2.55 -6.11,0 -12.46,0.56 -19.08,1.66 -6.6,1.09 -12.92,2.67 -18.95,4.7 -6.01,2.03 -11.57,4.41 -16.65,7.13l-9.41 -26.2c9.16,-4.74 19.29,-8.43 30.39,-11.06 11.11,-2.62 22.26,-3.94 33.46,-3.94 9.32,0 18.26,0.99 26.82,2.93 8.57,1.95 16.24,4.91 23.02,8.89 6.78,3.99 12.12,9.04 16.02,15.13 3.9,6.11 5.85,13.4 5.85,21.87 0,7.97 -1.82,15.31 -5.46,22 -3.65,6.7 -8.81,12.08 -15.51,16.15l-1.71 0.99 -0.04 0.12c1.64,0.57 3.23,1.23 4.8,1.95 7.73,3.57 13.91,8.69 18.56,15.38 4.67,6.71 7.01,14.8 7.01,24.29 0,10.18 -3.1,19.28 -9.29,27.34 -6.19,8.05 -15.22,14.37 -27.09,18.95 -11.87,4.57 -26.54,6.87 -44,6.87zm261.79 -2.55l-0.1 -76.31 -92.21 -0.24 0 76.55 -32.56 0 -0.51 -178.03 33.06 0 0 73.51 92.17 0.24 -0.1 -73.75 32.81 0 0.26 178.03 -32.82 0zm101.32 0l0 -178.03 32.3 0 0.26 126.4 95.62 -126.4 30.52 0 0.26 178.03 -32.56 0 0 -126.15 -95.62 126.15 -30.77 0zm315.73 0l0 -178.03 79.61 0c20,0 35.6,3.94 46.79,11.83 11.19,7.88 16.79,19.2 16.79,33.95 0,14.59 -5.34,25.82 -16.02,33.71 -3.13,2.31 -6.54,4.27 -10.25,5.9l0 0.03c7.24,1.99 13.45,4.88 18.64,8.69 10.84,7.97 16.27,19.5 16.27,34.59 0,15.43 -5.68,27.51 -17.04,36.24 -11.36,8.73 -28.14,13.1 -50.35,13.1l-84.44 0zm32.56 -25.43l50.86 0c11.52,0 20.26,-2.16 26.2,-6.48 5.93,-4.33 8.9,-10.98 8.9,-19.97 0,-8.99 -2.97,-15.55 -8.9,-19.7 -5.93,-4.16 -14.67,-6.23 -26.2,-6.23l-50.86 0 0 52.39zm0 -76.55l44.25 0c10.68,0 18.82,-2.16 24.41,-6.48 5.59,-4.32 8.39,-10.56 8.39,-18.69 0,-8.48 -2.8,-14.84 -8.39,-19.08 -5.59,-4.24 -13.73,-6.36 -24.41,-6.36l-44.25 0 0 50.62zm381.34 101.99l-52.14 -75.03 -33.06 0 0 75.03 -32.56 0 0 -178.03 32.56 0 0 74.52 34.16 0 51.04 -74.52 35.1 0 -60.87 86.12 63.16 91.91 -37.39 0zm115.57 -67.15l66.79 0 -33.45 -77.87 -33.34 77.87zm77.93 25.95l-89.03 0 -17.64 41.2 -34.08 0 80.11 -178.03 32.55 0 80.37 178.03 -34.58 0 -17.7 -41.2zm214.13 -62.31l30.74 0 43.77 -74.52 35.1 0 -51.9 85.33 55.71 92.7 -38.15 0 -44.88 -75.03 -30.4 0 0 75.03 -32.3 0 0 -75.03 -30.42 0 -45.11 75.03 -38.15 0 55.83 -92.9 -52.01 -85.14 35.09 0 43.56 74.52 31.22 0 0 -74.52 32.3 0 0 74.52zm146.29 75.53c5.32,-0.29 9.79,-2.49 13.39,-6.61 4.15,-4.75 7.41,-11.36 9.79,-19.84 2.38,-8.48 4.15,-18.44 5.34,-29.87 1.18,-11.45 2.02,-23.87 2.54,-37.27l2.03 -56.46 130.47 0 0 150.06 25.69 0 0 65.88 -30.52 0 0 -37.9 -136.58 0 0 37.9 -30.77 0 0.26 -65.88 5.85 0 2.5 0zm131.01 0l0 -122.08 -69.68 0 -1.28 31.54c-0.51,11.88 -1.23,23.1 -2.16,33.7 -0.93,10.6 -2.38,20.22 -4.32,28.86 -1.95,8.65 -4.62,15.86 -8.01,21.63 -1.46,2.48 -3.06,4.6 -4.8,6.35l90.25 0zm189.83 30.27c-13.4,0.17 -25.99,-2.04 -37.77,-6.61 -11.79,-4.58 -22,-10.98 -30.65,-19.21 -8.64,-8.22 -15.3,-17.92 -19.95,-29.12 -4.67,-11.19 -7.01,-23.31 -7.01,-36.36 -0.16,-13.22 2.13,-25.36 6.87,-36.37 4.76,-11.03 11.49,-20.68 20.23,-28.99 8.73,-8.31 18.9,-14.71 30.52,-19.2 11.62,-4.5 24.28,-6.83 38.02,-7 13.91,0 26.66,2.29 38.28,6.87 11.62,4.57 21.7,10.98 30.27,19.2 8.56,8.22 15.21,17.89 19.96,29 4.75,11.1 7.13,23.27 7.13,36.49 0.17,13.22 -2.13,25.43 -6.87,36.62 -4.75,11.19 -11.45,20.85 -20.09,28.99 -8.65,8.14 -18.78,14.5 -30.4,19.08 -11.62,4.57 -24.45,6.78 -38.53,6.61zm0 -28.49c9.15,-0.16 17.54,-1.73 25.18,-4.7 7.63,-2.96 14.24,-7.33 19.84,-13.09 5.59,-5.76 9.96,-12.42 13.09,-19.97 3.14,-7.55 4.78,-15.9 4.96,-25.05 -0.17,-9.16 -1.77,-17.55 -4.83,-25.18 -3.05,-7.62 -7.43,-14.28 -13.1,-19.96 -5.68,-5.68 -12.29,-10.05 -19.83,-13.09 -7.55,-3.05 -15.98,-4.58 -25.3,-4.58 -8.81,0.17 -17.05,1.73 -24.68,4.7 -7.62,2.97 -14.28,7.3 -19.96,12.97 -5.68,5.68 -10.08,12.34 -13.23,19.96 -3.13,7.63 -4.7,16.03 -4.7,25.18 0.17,8.98 1.78,17.34 4.84,25.05 3.04,7.72 7.42,14.37 13.09,19.97 5.68,5.59 12.34,9.96 19.96,13.09 7.63,3.14 15.86,4.7 24.68,4.7zm151.41 26.2l0 -178.03 26.96 0 70.79 117.83 69.6 -117.83 26.96 0 0.51 178.03 -31.55 0 -0.23 -118.06 -58.51 97.71 -14.76 0 -58.46 -96.03 -0.03 116.37 -31.29 0zm351.59 0l0 -178.03 32.56 0 0 150.11 65.58 -0.04 0.03 -150.06 32.56 0 0 149.99 65.48 0.06 -0.11 -150.05 32.56 0 0 178.03 -228.65 0zm337.35 -67.15l66.77 0 -33.44 -77.87 -33.33 77.87zm77.92 25.95l-89.04 0 -17.64 41.2 -34.08 0 80.1 -178.03 32.56 0 80.37 178.03 -34.59 0 -17.69 -41.2zm98.15 41.2l0 -178.03 120.8 0 -0.25 27.98 -88.24 0 -0.01 150.06 -32.3 0z"/>
  </g>
 </g>
</svg>
