<svg
  xmlns="http://www.w3.org/2000/svg"
  xml:space="preserve"
  width="48.7266mm"
  height="77.8683mm"
  version="1.1"
  style="shape-rendering:geometricPrecision; text-rendering:geometricPrecision; image-rendering:optimizeQuality; fill-rule:evenodd; clip-rule:evenodd"
  viewBox="0 0 6132.53 9800.18"
  xmlns:xlink="http://www.w3.org/1999/xlink">
  <g id="Слой_x0020_1">
    <metadata id="CorelCorpID_0Corel-Layer"/>
    <g id="_2283134179120">
      <path
        fill="#ffffff"
        fill-rule="nonzero"
        d="M3728.68 4914c434.82,20.07 822.12,101.3 1161.91,243.67 395.56,165.75 701.46,391.76 917.64,678.04 216.2,286.28
          324.29,610.25 324.29,971.87 0,406.82 -114.99,772.2 -345,1096.17 -229.98,323.95 -545.06,578.21 -945.23,762.79
          -400.2,184.58 -848.66,276.87 -1345.42,276.87 -279.66,0 -586.65,-9.58 -920.95,-28.76 26.1,-64.05 55.91,-136.94
          73.99,-180.35 178.95,18.87 396.87,28.29 653.76,28.29 699.18,0 1212.03,-148.79 1538.63,-446.37 326.57,-297.57
          489.84,-706.28 489.84,-1226.13 0,-565.03 -211.55,-1028.37 -634.75,-1389.98 -423.15,-361.62 -1002.73,-546.2
          -1738.67,-553.73 -126.23,-3.7 -251.37,-5.59 -375.4,-5.65 -20.3,-26.76 -46.62,-66.85 -59.97,-109.27
          -15.34,-48.78 -14,-82.4 -11.21,-99.92 744.27,-4.67 1270.3,-153.44 1578.12,-446.27 312.78,-297.57
          469.15,-664.85 469.15,-1101.82 0,-256.14 -57.49,-493.46 -172.49,-711.93 -114.98,-218.49 -303.56,-393.64
          -565.75,-525.5 -262.22,-131.82 -618.68,-197.76 -1069.46,-197.76 -220.79,0 -400.17,13.2 -538.18,39.57
          -137.99,26.37 -236.87,96.05 -296.68,209.06 -14.52,27.44 -27.26,59.55 -38.26,96.33 -35.35,-63.86 -67.28,-137.27
          -81.55,-211.88 -26.52,-138.66 38.7,-197.97 86.94,-222.4 127.22,-5.6 262.37,-13.49 405.47,-23.69 317.38,-22.6
          577.26,-33.91 779.64,-33.91 542.78,0 977.46,69.69 1304.03,209.08 326.6,139.37 563.48,322.07 710.67,548.08
          147.19,226.01 220.79,474.61 220.79,745.83 0,429.43 -186.29,791.05 -558.86,1084.86 -286.16,225.66
          -625.23,400.21 -1017.18,523.66l0.15 1.12zm-3209.97 -3080.27c0,0 -380.65,1141.29 -211.58,2147.1 169.09,1005.81
          471.14,1429.13 925.86,2514.86 454.7,1085.75 69.59,1489.44 -74.24,1721.43 -143.83,231.98 -283.04,385.11
          -283.04,385.11 0,0 -46.82,-51.24 15.25,-188.88 62.06,-137.66 471.66,-748.72 13.93,-1685.78 -457.74,-937.07
          -904.9,-1856.76 -904.9,-2958.93 0,-1102.17 461.16,-2006.65 518.71,-1934.91z"
      />
      <path
        fill="#FF8E16"
        d="M1737.84 4307.86c0,0 17.36,421.55 -191.59,543.26 -52.28,30.47 -74.43,37.1 -134.83,40.37 -241.44,13.18
          -458.67,-348.52 -458.67,-348.52 0,0 -24.96,-42 31.64,-60.57 56.61,-18.58 113.66,29.34 178.73,80.48
          128.49,100.91 358.06,32.17 409.94,-122.76 26.24,-78.5 47.57,-149.88 105.08,-165.49 57.49,-15.59 59.71,33.23
          59.71,33.23zm661.66 -4143.28c0,0 -94.98,36.41 -138.87,-1.95 -10.99,-9.59 -14.21,-14.15 -19.61,-27.69
          -21.61,-54.16 44.3,-131.62 44.3,-131.62 0,0 7.68,-8.94 16.27,2.54 8.61,11.52 2.05,28.24 -4.63,47.03
          -13.16,37.14 20.23,84.29 59.62,84.21 19.95,-0.05 37.9,-0.67 45.9,11.25 7.99,11.94 -2.98,16.22
          -2.98,16.22zm-133.05 142.62c0,0 -124.52,57.58 -187.05,9.9 -15.66,-11.93 -20.39,-17.75 -28.88,-35.49
          -33.93,-70.92 47.77,-181.11 47.77,-181.11 0,0 9.51,-12.72 22.13,1.98 12.61,14.7 5.31,37.79 -1.98,63.71
          -14.37,51.14 34.8,111.6 87.8,107.93 26.85,-1.88 50.93,-4.32 62.78,11.01 11.82,15.34 -2.57,22.06
          -2.57,22.06zm-147.26 160.6c0,0 -141.83,68.63 -214.6,15.17 -18.2,-13.38 -23.77,-19.97 -33.87,-40.17
          -40.42,-80.75 51.16,-208.96 51.16,-208.96 0,0 10.67,-14.79 25.45,1.84 14.79,16.61 6.86,43.29 -0.99,73.19
          -15.44,59.03 42.25,127.44 103.03,122.17 30.8,-2.69 58.42,-5.99 72.32,11.38 13.88,17.38 -2.49,25.4
          -2.49,25.4zm-162.9 169.39c0,0 -150.71,96.62 -240.03,46.13 -22.36,-12.62 -29.54,-19.32 -43.66,-40.74
          -56.52,-85.63 29.48,-242.65 29.48,-242.65 0,0 10.03,-18.14 28.95,-1.38 18.93,16.78 13.59,47.93 8.78,82.71
          -9.46,68.68 64.9,138.06 132.75,123.89 34.37,-7.19 65.09,-14.66 83.12,3.05 18.02,17.73 0.62,29 0.62,29zm-177.36
          206.84c0,0 -161.81,103.73 -257.72,49.52 -24,-13.57 -31.7,-20.73 -46.87,-43.75 -60.69,-91.94 31.64,-260.51
          31.64,-260.51 0,0 10.77,-19.47 31.09,-1.49 20.33,18 14.59,51.45 9.44,88.8 -10.17,73.74 69.66,148.23
          142.52,133.02 36.89,-7.73 69.88,-15.76 89.23,3.27 19.36,19.03 0.67,31.12 0.67,31.12zm-145.44 205.91c0,0
          -141.76,145 -253.22,112 -27.88,-8.24 -37.49,-13.82 -58.55,-33.86 -84.18,-80.15 -29.2,-275.33 -29.2,-275.33 0,0
          6.46,-22.59 31.6,-8.91 25.16,13.69 27.2,49.45 30.75,89.07 7.04,78.21 106.74,135.89 178.05,102.98 36.12,-16.69
          68.13,-32.75 92.53,-17.77 24.39,14.96 8.04,31.83 8.04,31.83zm-136.6 272.53c0,0 -132.94,153.14 -246.14,126.79
          -28.34,-6.58 -38.26,-11.57 -60.46,-30.33 -88.78,-75.01 -45.46,-273.13 -45.46,-273.13 0,0 5.11,-22.92
          31.04,-10.76 25.91,12.18 30.07,47.74 35.94,87.1 11.67,77.64 114.62,129.32 183.85,92.24 35.05,-18.8
          66.05,-36.72 91.31,-23.22 25.23,13.52 9.92,31.31 9.92,31.31zm-74.58 296.79c0,0 -135.33,183.88 -264.76,164.57
          -32.37,-4.83 -43.97,-9.54 -70.58,-28.58 -106.41,-76.17 -75.73,-302.39 -75.73,-302.39 0,0 3.66,-26.2
          33.87,-14.89 30.19,11.33 38.07,50.87 48.23,94.47 20.09,86.11 140.32,134.78 214.63,86.92 37.66,-24.28
          70.82,-47.2 100.38,-34.31 29.55,12.86 13.96,34.22 13.96,34.22zm-87.46 303.46c0,0 -93.99,221.36 -231.31,233.03
          -34.37,2.92 -47.4,0.93 -79.29,-12.13 -127.57,-52.15 -151.15,-291.47 -151.15,-291.47 0,0 -2.59,-27.73
          31.07,-23.47 33.7,4.24 51.39,42.85 72.42,85.08 41.53,83.35 176.56,103.98 241.1,36.85 32.67,-34.01 61.08,-65.57
          94.52,-59.57 33.4,6 22.64,31.68 22.64,31.68zm-18.56 337.23c0,0 -76,244.08 -220.02,270.96 -36.05,6.73
          -50.04,5.99 -85.18,-4.43 -140.44,-41.68 -190.68,-292.35 -190.68,-292.35 0,0 -5.7,-29.06 30.38,-28.12 36.1,0.94
          58.89,39.9 85.59,82.33 52.75,83.77 197.76,91.33 258.92,13.49 30.97,-39.43 57.69,-75.83 93.67,-73.01 35.98,2.82
          27.31,31.12 27.31,31.12zm52.39 353.04c0,0 -76.67,299.78 -249.08,341.22 -43.14,10.37 -60.1,10.36 -103.21,-0.08
          -172.37,-41.63 -248.7,-341.47 -248.7,-341.47 0,0 -8.68,-34.77 34.99,-35.88 43.67,-1.12 73.65,44.57
          108.58,94.19 68.98,97.98 244.74,98.08 313.82,0.19 34.98,-49.6 64.99,-95.25 108.68,-94.08 43.68,1.16
          34.94,35.91 34.94,35.91zm27.89 425.28c0,0 -74.2,300.37 -246.27,343.23 -43.07,10.75 -60.01,10.89 -103.2,0.79
          -172.71,-40.21 -251.52,-339.42 -251.52,-339.42 0,0 -8.97,-34.69 34.69,-36.17 43.67,-1.47 74.02,43.96
          109.36,93.32 69.77,97.39 245.53,96.04 313.81,-2.42 34.56,-49.88 64.21,-95.78 107.91,-94.97 43.67,0.79
          35.24,35.63 35.24,35.63zm78.86 361.9c0,0 -25.83,352.09 -211.14,433.3 -46.37,20.35 -65.39,23.74 -115.93,20.7
          -201.97,-12.09 -347.99,-333.51 -347.99,-333.51 0,0 -16.75,-37.32 32.07,-47.33 48.83,-10.04 91.69,35.24
          140.9,83.96 97.16,96.17 294.57,60.93 352.48,-62.9 29.3,-62.74 53.84,-120.04 103.13,-127.54 49.3,-7.46
          46.48,33.33 46.48,33.33zm90.5 450.25c0,0 7.83,377.95 -181.56,483.16 -47.41,26.33 -67.35,31.85 -121.53,33.68
          -216.52,7.39 -404.48,-320.59 -404.48,-320.59 0,0 -21.61,-38.08 29.44,-53.68 51.05,-15.61 101.29,28.36
          158.64,75.36 113.25,92.76 320.16,35.37 369.45,-102.46 24.94,-69.84 45.36,-133.38 97.15,-146.31 51.79,-12.93
          52.88,30.83 52.88,30.83zm-630.59 5914.17c0,0 -106.45,60.94 -165.83,23.32 -14.85,-9.4 -19.53,-14.22
          -28.46,-29.37 -35.74,-60.52 28.49,-165.01 28.49,-165.01 0,0 7.49,-12.07 19.87,0.05 12.37,12.11 7.64,33.25
          3.16,56.87 -8.82,46.68 39.66,96.7 86.56,89.35 23.77,-3.75 45.04,-7.82 56.77,4.95 11.72,12.75 -0.58,19.85
          -0.58,19.85zm200.16 -164.95c0,0 -118.28,83.64 -192.33,46.13 -18.54,-9.38 -24.58,-14.52 -36.79,-31.33
          -48.84,-67.14 14.91,-197.22 14.91,-197.22 0,0 7.44,-15.05 23.35,-2.2 15.92,12.86 12.75,38.25 10.13,66.54
          -5.11,55.85 57.53,109.21 111.86,95.26 27.54,-7.07 52.08,-14.25 67.31,-0.58 15.22,13.67 1.56,23.4
          1.56,23.4zm178.94 -180.67c0,0 -129.37,91.48 -210.38,50.44 -20.28,-10.28 -26.87,-15.9 -40.22,-34.27
          -53.43,-73.45 16.29,-215.72 16.29,-215.72 0,0 8.16,-16.45 25.56,-2.4 17.41,14.06 13.93,41.82 11.09,72.78
          -5.6,61.1 62.92,119.45 122.34,104.2 30.1,-7.74 56.95,-15.58 73.63,-0.64 16.63,14.95 1.7,25.61
          1.7,25.61zm232.39 -227.3c0,0 -126.98,115.47 -219.49,82.07 -23.16,-8.36 -31,-13.53 -47.8,-31.51 -67.14,-71.88
          -11.04,-234.08 -11.04,-234.08 0,0 6.59,-18.75 27.16,-5.95 20.59,12.8 20.54,43.12 21.56,76.77 2.06,66.43
          83.46,120.09 145.33,95.84 31.35,-12.32 59.18,-24.3 79.05,-10.43 19.9,13.86 5.24,27.3 5.24,27.3zm222.45
          -268.22c0,0 -137.84,146.65 -249.06,116.08 -27.83,-7.64 -37.48,-12.98 -58.77,-32.46 -85.08,-77.87
          -34.36,-272.62 -34.36,-272.62 0,0 5.98,-22.53 31.21,-9.45 25.22,13.09 27.93,48.53 32.23,87.77 8.51,77.46
          108.58,132.74 178.68,98.68 35.49,-17.25 66.94,-33.82 91.45,-19.43 24.52,14.39 8.62,31.43 8.62,31.43zm224.53
          -300.9c0,0 -138.54,175.95 -264.79,152.86 -31.6,-5.75 -42.82,-10.72 -68.3,-30.26 -101.88,-78.04 -64.58,-298.86
          -64.58,-298.86 0,0 4.42,-25.56 33.65,-13.49 29.24,12.06 35.69,51.06 44.26,94.14 16.97,85.04 133.27,136.59
          207.66,92.04 37.67,-22.58 70.92,-44.01 99.48,-30.44 28.57,13.57 12.61,34.01 12.61,34.01zm197.82 -450.09c0,0
          -114.88,244.39 -269.47,251.64 -38.69,1.82 -53.21,-0.96 -88.46,-16.97 -140.93,-63.97 -157.19,-333.53
          -157.19,-333.53 0,0 -1.75,-31.22 35.87,-25.01 37.63,6.2 55.84,50.28 77.63,98.56 43.06,95.29 193.72,124.19
          268.98,51.61 38.11,-36.78 71.35,-71 108.59,-62.83 37.25,8.17 24.06,36.52 24.06,36.52zm167.84 -471.85c0,0
          -129.52,288.63 -310.46,300.32 -45.27,2.93 -62.35,-0.01 -103.98,-18.05 -166.39,-72.01 -191.02,-387.42
          -191.02,-387.42 0,0 -2.68,-36.55 41.52,-30.05 44.19,6.49 66.43,57.74 92.96,113.85 52.39,110.73 229.47,141.47
          316.15,54.91 43.87,-43.89 82.11,-84.64 125.89,-75.85 43.81,8.8 28.95,42.3 28.95,42.3zm61.17 -542.24c0,0
          -69.91,337.62 -259.7,392.63 -47.49,13.77 -66.36,14.62 -114.89,5.25 -194.01,-37.48 -294.41,-367.32
          -294.41,-367.32 0,0 -11.45,-38.26 37.09,-41.73 48.57,-3.5 84.3,45.81 125.72,99.28 81.83,105.49 277.46,96.56
          349.33,-15.96 36.38,-57.03 67.46,-109.37 116.14,-110.33 48.67,-0.94 40.74,38.18 40.74,38.18zm-49.88
          -610.74c0,0 -16.13,375.01 -210.46,467.3 -48.62,23.09 -68.74,27.34 -122.55,25.71 -215.02,-6.36 -380.59,-343.26
          -380.59,-343.26 0,0 -18.99,-39.1 32.56,-51.32 51.59,-12.23 98.58,34.5 152.45,84.7 106.36,99.07 315.05,55.28
          372.61,-78.21 29.11,-67.61 53.35,-129.3 105.52,-138.86 52.13,-9.53 50.46,33.93 50.46,33.93zm-115.32
          -504.08c0,0 -10.46,375.23 -203.37,470.44 -48.28,23.82 -68.34,28.36 -122.16,27.56 -215.1,-3.12 -385.71,-337.48
          -385.71,-337.48 0,0 -19.58,-38.8 31.78,-51.83 51.4,-13 99.09,33.01 153.7,82.41 107.86,97.45 315.86,50.51
          371.4,-83.82 28.1,-68.05 51.4,-130.12 103.4,-140.43 51.98,-10.32 50.96,33.15 50.96,33.15zm-116.58 -587.24c0,0
          -11.75,421.74 -228.59,528.75 -54.26,26.78 -76.8,31.88 -137.28,30.99 -241.77,-3.51 -433.54,-379.3
          -433.54,-379.3 0,0 -22.02,-43.63 35.72,-58.25 57.77,-14.65 111.37,37.09 172.76,92.6 121.22,109.53 355,56.77
          417.41,-94.2 31.59,-76.51 57.79,-146.24 116.23,-157.85 58.43,-11.59 57.29,37.27 57.29,37.27zm-200.36
          -600.6c0,0 17.37,421.54 -191.58,543.26 -52.28,30.46 -74.43,37.09 -134.84,40.36 -241.43,13.18 -458.66,-348.52
          -458.66,-348.52 0,0 -24.96,-42 31.64,-60.57 56.61,-18.58 113.66,29.34 178.73,80.48 128.49,100.91 358.06,32.17
          409.94,-122.76 26.24,-78.5 47.57,-149.88 105.08,-165.49 57.49,-15.58 59.69,33.24 59.69,33.24z"
      />
    </g>
  </g>
</svg>
